<svg xmlns="http://www.w3.org/2000/svg" version="1.1" xmlns:xlink="http://www.w3.org/1999/xlink" xmlns:svgjs="http://svgjs.com/svgjs" width="150.000000pt" height="150.000000pt"><svg version="1.0" xmlns="http://www.w3.org/2000/svg" width="150.000000pt" height="150.000000pt" viewBox="0 0 150.000000 150.000000" preserveAspectRatio="xMidYMid meet">
<metadata>
Created by potrace 1.14, written by Peter Selinger 2001-2017
</metadata>
<g transform="translate(0.000000,150.000000) scale(0.100000,-0.100000)" fill="#000000" stroke="none">
<path d="M610 1491 c-28 -8 -39 -43 -20 -66 12 -14 15 -308 4 -327 -12 -18
-108 -1 -171 30 -33 17 -81 47 -106 66 -48 37 -77 46 -77 24 0 -7 39 -74 86
-148 l85 -135 -71 -7 c-44 -5 -91 -18 -125 -34 -91 -45 -175 -151 -187 -234
-3 -23 1 -25 42 -30 72 -8 150 8 216 45 l62 33 26 -76 c14 -42 48 -137 75
-211 l49 -134 -18 -41 c-38 -86 6 -192 95 -226 18 -8 88 -12 178 -12 128 1
154 3 190 21 80 39 111 121 82 214 l-16 52 51 145 c29 80 60 169 70 198 26 72
29 76 48 59 48 -42 128 -68 210 -69 76 0 93 8 86 40 -31 135 -160 243 -310
259 l-67 8 39 46 c21 25 62 71 89 103 28 33 65 65 83 73 56 23 31 87 -32 81
-25 -2 -32 -8 -34 -31 -4 -32 -20 -42 -84 -51 -83 -12 -139 31 -162 127 -5 20
-3 27 8 27 20 0 35 28 28 52 -13 53 -103 36 -99 -18 2 -21 -5 -30 -37 -47 -77
-40 -152 -18 -213 62 -29 38 -31 44 -18 57 16 17 19 33 7 49 -16 22 -38 31
-62 26z m70 -187 c60 -67 140 -83 226 -45 26 12 48 21 49 21 1 0 7 -17 13 -39
26 -84 83 -124 174 -123 l58 0 -19 -26 c-11 -15 -36 -45 -56 -67 -21 -22 -44
-50 -52 -62 -12 -19 -21 -22 -52 -17 -95 14 -234 64 -327 117 -42 24 -54 37
-55 57 -4 124 -3 220 2 220 3 0 21 -16 39 -36z m-125 -249 c63 0 80 -5 167
-48 53 -27 140 -61 193 -76 l97 -28 -33 -13 c-70 -29 -142 -115 -172 -203 -10
-30 -15 -74 -14 -120 4 -100 37 -169 120 -250 36 -34 70 -72 76 -84 28 -56 -4
-143 -63 -172 -45 -21 -297 -22 -345 0 -58 26 -88 83 -76 147 5 27 25 53 79
106 80 79 112 137 124 224 20 145 -59 292 -190 354 -44 20 -57 35 -114 125
-35 57 -64 104 -64 106 0 2 33 -13 73 -32 60 -29 83 -35 142 -36z m-145 -175
c0 -43 -88 -148 -150 -180 -68 -34 -190 -48 -190 -21 0 4 15 31 33 61 40 66
90 107 159 131 58 20 148 25 148 9z m866 -23 c56 -29 119 -92 140 -143 21 -49
19 -52 -36 -49 -110 7 -203 61 -262 154 -43 69 -40 75 40 69 45 -3 84 -14 118
-31z m-710 -42 c104 -86 136 -251 73 -376 -22 -45 -100 -122 -111 -111 -4 4
-40 97 -79 207 l-72 200 22 35 c12 19 29 52 38 72 l16 37 35 -15 c20 -8 55
-30 78 -49z m544 -53 c11 -13 18 -27 16 -31 -2 -3 -36 -96 -76 -206 -40 -110
-74 -202 -76 -204 -9 -10 -92 83 -115 127 -34 66 -34 196 -2 262 32 63 80 113
137 144 l50 26 23 -46 c13 -26 32 -58 43 -72z"></path>
<path d="M846 1169 c-34 -19 -38 -24 -32 -51 3 -16 15 -43 27 -59 20 -29 20
-29 57 -13 20 9 42 18 49 21 21 8 21 27 -1 73 -25 53 -44 58 -100 29z m74 -61
c0 -4 -10 -13 -22 -19 -18 -10 -24 -8 -35 7 -18 24 -17 29 10 41 17 9 25 8 35
-5 6 -9 12 -19 12 -24z"></path>
<path d="M616 208 c-13 -19 -14 -25 -2 -43 7 -11 21 -21 30 -23 42 -9 64 58
27 78 -28 15 -38 13 -55 -12z"></path>
<path d="M828 219 c-25 -14 -23 -56 2 -69 46 -25 88 23 54 61 -19 21 -31 23
-56 8z"></path>
<path d="M508 699 c-27 -15 -23 -57 7 -71 22 -10 29 -9 47 10 20 20 20 22 4
46 -18 28 -31 31 -58 15z"></path>
<path d="M936 688 c-13 -19 -14 -25 -2 -43 26 -39 76 -26 76 19 0 46 -48 62
-74 24z"></path>
</g>
</svg>
<style>
@media (prefers-color-scheme: light) { :root { filter: none; } }
@media (prefers-color-scheme: dark) { :root { filter: invert(100%); } }
</style>
</svg>